<?xml version="1.0" standalone="no"?>
<!DOCTYPE svg PUBLIC "-//W3C//DTD SVG 20010904//EN"
 "http://www.w3.org/TR/2001/REC-SVG-20010904/DTD/svg10.dtd">
<svg version="1.0" xmlns="http://www.w3.org/2000/svg"
 width="500.000000pt" height="500.000000pt" viewBox="0 0 500.000000 500.000000"
 preserveAspectRatio="xMidYMid meet">

<g transform="translate(0.000000,500.000000) scale(0.100000,-0.100000)"
fill="#000000" stroke="none">
<path d="M2570 3773 c-66 -12 -96 -90 -62 -165 40 -89 121 -130 190 -94 70 36
65 154 -9 221 -22 19 -45 35 -53 35 -8 0 -20 2 -28 4 -7 2 -24 1 -38 -1z"/>
<path d="M2313 3695 c0 -27 2 -38 4 -22 2 15 2 37 0 50 -2 12 -4 0 -4 -28z"/>
<path d="M2321 3600 c0 -8 4 -24 9 -35 5 -13 9 -14 9 -5 0 8 -4 24 -9 35 -5
13 -9 14 -9 5z"/>
<path d="M3085 3599 c4 -6 1 -10 -6 -8 -26 3 -40 -1 -34 -10 3 -6 -15 -13 -40
-16 -25 -4 -45 -12 -45 -17 0 -6 -5 -6 -14 1 -11 9 -15 6 -21 -16 -22 -90
-163 -237 -211 -219 -7 3 -16 1 -19 -3 -2 -5 -16 -11 -30 -13 -13 -3 -22 -2
-20 2 3 4 -13 10 -35 14 -40 6 -80 -8 -80 -28 0 -9 -10 -22 -91 -106 -18 -19
-32 -38 -31 -42 1 -5 -5 -8 -13 -8 -8 0 -15 -4 -15 -10 0 -5 -6 -10 -14 -10
-8 0 -16 -5 -18 -12 -2 -6 -30 -12 -64 -14 -46 -2 -51 -1 -24 5 l35 7 -27 8
c-16 5 -35 5 -45 2 -9 -4 -20 -1 -25 6 -5 9 -10 10 -15 2 -9 -11 -54 -14 -47
-3 2 4 0 10 -6 14 -5 3 -10 1 -10 -4 0 -6 -4 -11 -10 -11 -5 0 -10 7 -10 15 0
8 -8 15 -17 15 -16 0 -16 -2 -3 -11 12 -8 9 -9 -10 -4 -14 4 -46 9 -72 12 -26
3 -46 8 -44 12 2 3 -25 6 -60 7 -35 1 -64 -3 -64 -8 0 -5 -9 -7 -20 -3 -15 5
-23 0 -31 -19 -7 -14 -15 -23 -20 -20 -4 2 -12 -3 -17 -13 -8 -14 -13 -15 -25
-5 -10 9 -17 10 -22 2 -3 -5 -17 -10 -31 -10 -17 0 -24 -6 -24 -19 0 -10 -7
-22 -16 -25 -20 -8 -63 41 -64 72 0 15 -5 22 -12 19 -7 -2 -13 -14 -12 -26 1
-23 1 -23 -38 -25 -19 -1 -30 5 -37 22 -15 32 -5 68 19 68 13 0 16 -4 10 -10
-14 -14 -12 -48 2 -44 15 5 19 63 7 96 -7 19 -11 21 -23 10 -8 -7 -12 -15 -10
-17 2 -2 -3 -16 -10 -30 -40 -78 -47 -239 -16 -365 23 -89 79 -212 96 -209 7
1 11 -5 10 -15 0 -9 5 -16 12 -14 8 1 11 -2 7 -9 -4 -6 20 -37 57 -73 96 -92
172 -126 543 -245 72 -24 148 -53 170 -66 59 -34 133 -117 161 -181 41 -92 30
-258 -18 -276 -19 -8 -121 8 -229 36 -151 39 -164 46 -183 103 -22 65 -84 153
-123 176 -49 28 -134 57 -169 57 -45 0 -92 -18 -156 -62 -32 -21 -58 -40 -58
-41 0 -1 22 0 50 1 44 4 67 -2 160 -36 8 -3 18 -5 22 -4 4 1 10 -7 13 -18 4
-11 10 -20 15 -20 5 0 12 -9 15 -20 4 -11 11 -18 16 -14 5 3 9 2 8 -3 -1 -4 7
-28 19 -53 12 -25 22 -56 22 -70 0 -19 -7 -11 -26 30 -37 80 -85 133 -148 164
-72 35 -117 42 -169 26 -52 -17 -64 -26 -91 -70 -99 -159 -30 -365 159 -476
67 -39 167 -41 244 -5 l51 25 63 -21 c58 -19 82 -26 183 -52 56 -15 257 -14
308 1 84 25 276 143 332 206 19 20 48 59 65 85 18 26 34 46 36 43 11 -10 -23
-127 -58 -205 -53 -115 -112 -187 -164 -201 -54 -14 -186 -80 -192 -96 -3 -8
-10 -14 -17 -14 -26 0 -105 -93 -122 -142 -47 -143 41 -345 181 -413 80 -40
150 -43 218 -12 124 57 244 156 278 230 27 60 24 166 -7 268 -2 10 22 47 62
95 85 102 136 176 178 261 55 112 96 250 96 327 0 41 -2 45 -29 51 -17 4 -50
-1 -82 -12 -30 -9 -57 -17 -61 -15 -7 2 -10 -10 -29 -143 -7 -44 -16 -87 -21
-95 -6 -10 -7 -6 -3 13 17 82 25 245 15 335 -12 123 -55 273 -83 293 -5 3 -8
8 -7 10 6 12 -34 88 -43 82 -6 -3 -7 -1 -3 5 8 14 -24 73 -36 66 -4 -3 -8 1
-8 9 0 14 -19 38 -83 106 -18 19 -25 30 -17 26 12 -6 13 -5 3 5 -9 10 -16 10
-25 2 -11 -8 -14 -7 -14 8 0 10 5 16 11 12 5 -3 -3 8 -20 26 -16 18 -36 32
-43 32 -7 0 -11 4 -8 9 4 5 -5 8 -19 6 -20 -2 -23 0 -14 11 8 10 8 14 1 14 -6
0 -20 10 -31 21 -13 14 -26 19 -37 15 -15 -6 -15 -4 -3 10 13 16 12 16 -9 5
-18 -9 -22 -9 -20 1 2 7 -12 20 -29 29 -18 9 -39 21 -46 28 -8 6 -17 8 -20 5
-3 -4 -13 1 -22 10 -16 16 -61 23 -51 8 2 -4 -10 -6 -29 -4 -18 2 -43 -1 -56
-8 -22 -10 -22 -10 -6 3 13 11 15 16 5 19 -7 3 10 16 39 30 29 13 49 20 46 15
-3 -5 11 -8 36 -5 22 2 42 0 43 -4 4 -11 78 40 78 53 0 6 8 18 17 27 16 16 15
17 -14 20 -52 5 -105 -15 -182 -69 -76 -54 -101 -90 -101 -149 0 -16 -4 -30
-9 -30 -19 0 -177 53 -229 77 -77 35 -127 85 -152 149 -23 64 -25 93 -6 154
16 53 14 53 161 21 210 -45 229 -46 310 -13 111 46 160 78 209 139 28 34 58
62 67 62 55 3 280 114 318 156 51 59 98 175 70 175 -6 0 -7 -5 -4 -11z m-1603
-421 c-7 -7 -12 -8 -12 -2 0 14 12 26 19 19 2 -3 -1 -11 -7 -17z m227 -149 c1
-29 -3 -48 -8 -45 -5 4 -6 -7 -1 -26 5 -18 13 -56 19 -85 14 -70 62 -145 119
-185 71 -50 70 -49 340 -134 76 -24 122 -43 122 -51 0 -10 -5 -11 -18 -4 -33
17 -106 41 -129 41 -12 0 -25 5 -28 10 -4 6 -15 8 -24 5 -10 -3 -24 1 -31 10
-9 11 -23 14 -44 11 -17 -3 -24 -3 -16 1 9 4 -2 11 -30 19 -24 7 -48 10 -53 7
-6 -4 -7 -1 -2 7 6 10 1 11 -21 6 -21 -5 -25 -4 -14 4 16 10 16 10 -27 14 -6
1 -19 8 -30 17 -10 9 -26 19 -36 22 -11 4 -15 12 -11 19 5 7 2 9 -8 6 -10 -4
-18 4 -27 28 -7 19 -19 34 -27 34 -9 0 -12 5 -8 11 3 6 0 15 -7 20 -8 5 -13
21 -11 39 2 16 0 30 -5 30 -5 0 -9 20 -9 44 -1 30 -7 50 -22 67 -39 41 -18
101 39 108 3 1 7 -22 8 -50z m-242 -35 c-3 -3 -12 -4 -19 -1 -8 3 -5 6 6 6 11
1 17 -2 13 -5z m1141 -744 c25 -27 96 -159 89 -166 -2 -2 -16 23 -32 56 -16
33 -33 60 -39 60 -5 0 -6 3 -3 7 4 3 -18 30 -48 59 -30 29 -55 56 -55 60 0 9
53 -37 88 -76z m-503 -612 c142 -40 220 -50 265 -34 20 6 22 6 13 -4 -26 -28
-97 -23 -262 19 -90 23 -177 48 -194 56 l-32 15 35 -6 c19 -3 98 -24 175 -46z
m-484 -35 c13 -16 12 -17 -3 -4 -10 7 -18 15 -18 17 0 8 8 3 21 -13z m102 -25
c-5 -10 -54 -10 -70 0 -6 4 8 7 32 7 24 0 41 -3 38 -7z m887 -378 c16 -5 2 -6
-35 -3 -33 3 -62 7 -64 9 -8 7 74 2 99 -6z m243 -238 c10 -23 16 -61 16 -85
l-2 -42 -7 45 c-7 41 -16 73 -35 125 -5 13 -5 17 2 10 6 -5 17 -29 26 -53z
m-318 -142 c10 -11 16 -20 13 -20 -3 0 -13 9 -23 20 -10 11 -16 20 -13 20 3 0
13 -9 23 -20z m109 -62 c-15 -7 -28 -7 -40 1 -16 9 -12 10 21 10 35 0 37 -2
19 -11z"/>
<path d="M1660 3040 c0 -5 7 -10 16 -10 8 0 12 5 9 10 -3 6 -10 10 -16 10 -5
0 -9 -4 -9 -10z"/>
<path d="M2345 3518 c7 -27 6 -28 -26 -22 -19 3 -39 7 -44 9 -17 4 -97 -38
-109 -57 -14 -23 16 -53 61 -61 25 -5 42 0 80 26 53 36 71 79 46 113 -13 18
-14 17 -8 -8z"/>
<path d="M1503 3273 c4 -3 2 -12 -4 -19 -7 -8 -6 -14 2 -20 7 -4 9 -3 5 4 -3
6 -2 13 4 17 14 8 13 25 -2 25 -6 0 -8 -3 -5 -7z"/>
</g>
</svg>
